<?xml version="1.0" encoding="UTF-8" standalone="no"?>
<svg
   version="1.0"
   width="1600.000000pt"
   height="1554.000000pt"
   viewBox="0 0 1600.000000 1554.000000"
   preserveAspectRatio="xMidYMid meet"
   id="svg14"
   sodipodi:docname="logo.svg"
   inkscape:version="1.1.1 (3bf5ae0d25, 2021-09-20)"
   xmlns:inkscape="http://www.inkscape.org/namespaces/inkscape"
   xmlns:sodipodi="http://sodipodi.sourceforge.net/DTD/sodipodi-0.dtd"
   xmlns="http://www.w3.org/2000/svg"
   xmlns:svg="http://www.w3.org/2000/svg">
  <defs
     id="defs18" />
  <sodipodi:namedview
     id="namedview16"
     pagecolor="#ffffff"
     bordercolor="#666666"
     borderopacity="1.0"
     inkscape:pageshadow="2"
     inkscape:pageopacity="0.0"
     inkscape:pagecheckerboard="0"
     inkscape:document-units="pt"
     showgrid="false"
     inkscape:zoom="0.22779923"
     inkscape:cx="1038.1949"
     inkscape:cy="1832.7542"
     inkscape:window-width="1280"
     inkscape:window-height="657"
     inkscape:window-x="-8"
     inkscape:window-y="-8"
     inkscape:window-maximized="1"
     inkscape:current-layer="svg14" />
  <g
     transform="matrix(0.1,0,0,-0.1,3.2923729,1524.3686)"
     fill="#000000"
     stroke="none"
     id="g12">
    <path
       d="m 9084,15516 c -126,-40 -577,-350 -1019,-701 -117,-93 -601,-444 -1650,-1198 -99,-71 -468,-336 -820,-589 -352,-253 -759,-546 -905,-651 -146,-104 -283,-204 -305,-222 -56,-45 -88,-114 -93,-195 l -3,-65 117,-160 c 64,-88 151,-209 191,-269 95,-139 192,-273 219,-301 20,-22 223,-299 494,-675 73,-102 148,-204 166,-227 l 32,-43 248,182 c 607,442 773,564 839,613 39,28 180,132 315,230 309,226 975,712 1430,1045 80,58 253,185 385,281 132,97 366,268 520,381 792,579 742,545 855,574 81,20 168,14 248,-19 34,-14 225,-142 467,-313 226,-160 581,-411 790,-559 209,-148 508,-359 665,-470 1105,-781 1313,-926 1319,-919 3,5 49,74 103,154 222,333 325,583 285,687 -10,27 -97,94 -487,375 -486,349 -2373,1710 -2625,1893 -77,56 -320,231 -540,390 -220,159 -503,366 -630,460 -426,319 -487,350 -611,311 z"
       id="path2"
       style="fill:#7f60ff;fill-opacity:1" />
    <path
       d="m 4780,14378 c -363,-271 -808,-604 -1345,-1003 -154,-115 -543,-405 -865,-645 -1045,-779 -1552,-1155 -1695,-1256 -165,-117 -311,-233 -377,-298 -65,-65 -78,-121 -55,-249 32,-179 143,-532 294,-938 88,-239 322,-938 798,-2384 147,-445 320,-972 385,-1170 66,-198 162,-490 214,-649 62,-187 104,-300 122,-323 35,-46 98,-91 146,-104 47,-12 61,-8 1470,465 284,96 521,176 526,180 5,3 -4,42 -19,88 -36,109 -253,752 -529,1568 -122,360 -230,680 -240,710 -10,30 -63,188 -118,350 -167,491 -627,1854 -742,2197 -59,176 -111,348 -115,380 -14,125 35,264 122,347 27,25 363,285 748,577 385,293 772,587 860,654 308,234 647,493 1069,814 234,178 426,327 426,331 0,3 -38,53 -84,111 -257,321 -466,506 -584,516 l -47,5 z"
       id="path4"
       style="fill:#7f60ff;fill-opacity:1" />
    <path
       d="m 11110,12317 c -19,-6 -42,-16 -51,-22 -9,-5 -102,-125 -207,-265 -105,-140 -232,-309 -283,-375 -50,-66 -107,-145 -127,-175 -20,-30 -158,-219 -307,-420 -149,-201 -280,-379 -293,-397 l -22,-31 357,-263 c 197,-144 401,-294 453,-333 52,-38 127,-93 165,-121 39,-28 113,-83 165,-122 52,-38 174,-127 270,-198 96,-71 218,-160 270,-199 52,-38 136,-100 185,-136 50,-37 646,-475 1325,-974 736,-541 1254,-928 1283,-959 27,-29 62,-80 79,-115 26,-52 32,-77 35,-155 l 5,-92 -87,-270 c -122,-380 -227,-708 -274,-858 -42,-131 -165,-516 -591,-1846 -132,-414 -240,-755 -238,-756 7,-7 253,-77 368,-104 155,-37 270,-53 380,-53 100,-1 158,13 187,44 13,15 112,299 268,773 136,413 280,849 320,970 845,2553 1010,3050 1134,3406 106,305 129,423 94,497 -52,115 -418,407 -1048,839 -88,60 -529,386 -980,723 -451,337 -950,711 -1110,830 -159,119 -567,424 -906,677 -339,253 -631,465 -650,472 -51,18 -131,22 -169,8 z"
       id="path6"
       style="fill:#7f60ff;fill-opacity:1" />
    <path
       d="M 750,7736 C 412,7617 96,7441 30,7336 2,7289 5,7256 49,7128 123,6915 415,6077 495,5850 c 24,-69 78,-224 120,-345 42,-121 96,-276 120,-345 24,-69 78,-224 120,-345 42,-121 96,-276 120,-345 24,-69 78,-224 120,-345 42,-121 98,-283 125,-360 27,-77 81,-232 120,-345 39,-113 93,-268 120,-345 148,-422 206,-594 247,-720 119,-374 205,-588 254,-632 79,-71 346,-93 927,-74 200,6 422,16 495,21 136,9 433,14 1927,30 2075,23 2523,31 2576,45 59,17 140,83 159,130 13,31 13,33 -14,1524 -6,305 -13,556 -15,559 -5,4 -351,-2 -1621,-28 -253,-5 -1029,-21 -1725,-35 -696,-14 -1466,-29 -1712,-35 -449,-10 -497,-8 -586,24 -74,26 -151,88 -202,161 -16,24 -89,211 -175,450 -81,226 -345,961 -587,1635 -242,674 -472,1313 -510,1420 -39,107 -73,198 -77,202 -3,4 -35,-4 -71,-16 z"
       id="path8"
       style="fill:#7f60ff;fill-opacity:1" />
    <path
       d="m 11365,6478 c -2,-7 -96,-283 -209,-613 -952,-2798 -1552,-4550 -1576,-4603 -36,-77 -129,-174 -197,-204 -110,-48 -110,-49 -728,-43 -319,3 -1196,7 -1949,10 l -1369,6 6,-198 c 10,-312 46,-536 104,-652 52,-101 -14,-92 754,-102 371,-5 1147,-16 1724,-24 578,-8 1385,-19 1795,-25 410,-5 898,-15 1085,-21 337,-11 549,-4 594,21 31,16 99,97 126,149 88,175 262,663 399,1121 30,102 64,210 75,240 10,30 53,152 94,270 41,118 107,307 147,420 115,328 206,589 285,815 40,116 98,280 128,365 57,162 105,297 232,665 42,121 91,263 110,315 19,52 100,284 181,515 262,751 253,714 214,818 -27,73 -60,99 -165,135 -231,78 -394,136 -435,155 -25,11 -58,24 -75,28 -38,10 -181,58 -816,276 -279,95 -512,173 -518,173 -7,0 -14,-6 -16,-12 z"
       id="path10"
       style="fill:#7f60ff;fill-opacity:1" />
  </g>
  <circle
     style="fill:#7f60ff;fill-opacity:1;stroke-width:0.75"
     id="path5651"
     cx="773.70764"
     cy="796.75421"
     r="243.63559" />
  <ellipse
     style="fill:#7f60ff;fill-opacity:1;stroke-width:0.75"
     id="path5653"
     cx="832.97034"
     cy="839.55505"
     rx="3.2923729"
     ry="39.508476" />
  <ellipse
     style="fill:#7f60ff;fill-opacity:1;stroke-width:0.940175"
     id="path5655"
     cx="711.15253"
     cy="775.35382"
     rx="16.461864"
     ry="18.108051" />
  <circle
     style="fill:#7f60ff;fill-opacity:1;stroke-width:0.75"
     id="circle5749"
     cx="773.70764"
     cy="796.75421"
     r="243.63559" />
  <circle
     style="fill:#7f60ff;fill-opacity:1;stroke-width:0.75"
     id="circle5751"
     cx="773.70764"
     cy="796.75421"
     r="243.63559" />
</svg>
